<svg width="0" height="0">
  <symbol xmlns="http://www.w3.org/2000/svg" viewBox="0 0 20 20" id="button-arrow">
    <path fill-rule="evenodd" clip-rule="evenodd" d="M3 10v1h11v3l4-3.5L14 7v3H3z"></path>
  </symbol>
  <symbol xmlns="http://www.w3.org/2000/svg" viewBox="0 0 15 15" id="icon-comment">
    <path fill-rule="evenodd" clip-rule="evenodd" d="M11.135 12v3L8.36 12H2.25a1.5 1.5 0 01-1.5-1.5V3a1.5 1.5 0 011.5-1.5h10.5a1.5 1.5 0 011.5 1.5v7.5a1.5 1.5 0 01-1.5 1.5h-1.615z"></path>
  </symbol>
  <symbol xmlns="http://www.w3.org/2000/svg" viewBox="0 0 20 20" id="icon-download">
    <path fill-rule="evenodd" clip-rule="evenodd" d="M18 13.4262C18 13.1887 18.2626 13 18.5 13C18.7374 13 19 13.1887 19 13.4262V17.56C19 17.7974 18.8051 18 18.5677 18H2.42616C2.18872 18 2 17.7974 2 17.56V13.4262C2 13.1887 2.26256 13 2.5 13C2.73744 13 3 13.1887 3 13.4262V17H18V13.4262ZM11 1V11H14L10.5 15L7 11H10V1H11Z" fill="white"/>
  </symbol>
  <symbol xmlns="http://www.w3.org/2000/svg" viewBox="0 0 20 20" id="icon-facebook">
    <path fill-rule="evenodd" clip-rule="evenodd" d="M14.623 1.004L12.225 1C9.53 1 7.789 2.739 7.789 5.43v2.042H5.377A.372.372 0 005 7.84v2.96c0 .203.169.367.377.367H7.79v7.467c0 .203.169.367.377.367h3.146a.372.372 0 00.378-.367v-7.467h2.82a.372.372 0 00.377-.367V7.84c0-.097-.04-.19-.11-.26a.383.383 0 00-.267-.107h-2.82V5.741c0-.832.203-1.255 1.317-1.255h1.616A.372.372 0 0015 4.119V1.37a.372.372 0 00-.377-.367z"></path>
  </symbol>
  <symbol xmlns="http://www.w3.org/2000/svg" viewBox="0 0 80 80" id="icon-file">
    <path fill-rule="evenodd" clip-rule="evenodd" d="M52 4l16 16v52a4 4 0 01-4 4H16a4 4 0 01-4-4V8a4 4 0 014-4h36zm-4 20V8H16v64h48V24H48z" opacity=".5"></path>
  </symbol>
  <symbol xmlns="http://www.w3.org/2000/svg" viewBox="0 0 15 15" id="icon-gray-heart">
    <path fill-rule="evenodd" clip-rule="evenodd" d="M12.84 2.96c-.67-.748-1.56-1.16-2.505-1.16-.947 0-1.74.412-2.41 1.16l-.425.68-.425-.68c-.669-.748-1.463-1.16-2.41-1.16-.945 0-1.835.412-2.504 1.16C.78 4.506.78 7.02 2.16 8.564l4.949 4.757a.523.523 0 00.393.179c.14 0 .28-.06.387-.18l4.95-4.756c1.38-1.544 1.38-4.058 0-5.604z"></path>
  </symbol>
  <symbol xmlns="http://www.w3.org/2000/svg" viewBox="0 0 15 15" id="icon-heart">
    <path fill-rule="evenodd" clip-rule="evenodd" d="M12.84 2.96c-.67-.748-1.56-1.16-2.505-1.16-.947 0-1.74.412-2.41 1.16l-.425.68-.425-.68c-.669-.748-1.463-1.16-2.41-1.16-.945 0-1.835.412-2.504 1.16C.78 4.506.78 7.02 2.16 8.564l4.949 4.757a.523.523 0 00.393.179c.14 0 .28-.06.387-.18l4.95-4.756c1.38-1.544 1.38-4.058 0-5.604z"></path>
  </symbol>
  <symbol xmlns="http://www.w3.org/2000/svg" viewBox="0 0 20 20" id="icon-instagram">
    <path d="M10 1.802c2.67 0 2.986.01 4.04.058.976.045 1.505.208 1.858.344.466.182.8.399 1.15.748.35.35.566.684.748 1.15.137.353.3.882.344 1.857.048 1.055.058 1.37.058 4.041 0 2.67-.01 2.986-.058 4.04-.045.976-.207 1.505-.345 1.858-.18.466-.398.8-.748 1.15-.35.35-.683.566-1.15.748-.352.137-.881.3-1.856.344-1.055.048-1.37.058-4.041.058-2.67 0-2.987-.01-4.04-.058-.976-.045-1.505-.207-1.858-.344a3.098 3.098 0 01-1.15-.748 3.099 3.099 0 01-.748-1.15c-.137-.353-.3-.882-.344-1.857-.048-1.055-.058-1.37-.058-4.041 0-2.67.01-2.986.058-4.04.045-.976.207-1.505.344-1.858.182-.466.399-.8.748-1.15.35-.35.684-.566 1.15-.748.353-.136.882-.3 1.857-.344 1.055-.048 1.37-.058 4.041-.058zM10 0C7.284 0 6.944.012 5.877.06 4.813.11 4.086.278 3.45.525a4.902 4.902 0 00-1.772 1.153A4.902 4.902 0 00.525 3.45C.278 4.086.109 4.813.06 5.877.011 6.944 0 7.284 0 10s.011 3.056.06 4.123c.049 1.064.218 1.791.465 2.427a4.901 4.901 0 001.153 1.772 4.901 4.901 0 001.772 1.153c.636.247 1.363.416 2.427.465 1.067.048 1.407.06 4.123.06s3.056-.012 4.123-.06c1.064-.049 1.791-.218 2.427-.465a4.902 4.902 0 001.772-1.153 4.902 4.902 0 001.153-1.772c.247-.636.416-1.363.465-2.427.048-1.067.06-1.407.06-4.123s-.012-3.056-.06-4.123c-.049-1.064-.218-1.791-.465-2.427a4.903 4.903 0 00-1.153-1.772A4.902 4.902 0 0016.55.525C15.914.278 15.187.109 14.123.06 13.056.012 12.716 0 10 0zm0 4.865a5.135 5.135 0 100 10.27 5.135 5.135 0 000-10.27zm0 8.468a3.333 3.333 0 110-6.666 3.333 3.333 0 010 6.666zm6.538-8.671a1.2 1.2 0 11-2.4 0 1.2 1.2 0 012.4 0z"></path>
  </symbol>
  <symbol xmlns="http://www.w3.org/2000/svg" viewBox="0 0 20 20" id="icon-twitter">
    <path fill-rule="evenodd" clip-rule="evenodd" d="M18.979 4.363a.088.088 0 00-.105-.025 7.151 7.151 0 01-1.687.517 3.777 3.777 0 001.317-1.867.09.09 0 00-.03-.098.089.089 0 00-.101-.008 7.177 7.177 0 01-2.245.875 3.745 3.745 0 00-2.7-1.157c-2.066 0-3.746 1.696-3.746 3.78 0 .253.024.503.072.745A10.298 10.298 0 012.4 3.31a.09.09 0 00-.147.012 3.806 3.806 0 00-.507 1.9 3.79 3.79 0 001.41 2.958 3.557 3.557 0 01-1.307-.426.088.088 0 00-.088 0 .09.09 0 00-.045.077v.048a3.79 3.79 0 002.633 3.612 3.57 3.57 0 01-1.245-.018.09.09 0 00-.102.116A3.752 3.752 0 006.253 14.2a7.155 7.155 0 01-4.292 1.412c-.287 0-.577-.017-.861-.051a.09.09 0 00-.095.059.09.09 0 00.036.106A10.38 10.38 0 006.694 17.4c6.568 0 10.492-5.385 10.492-10.591 0-.145-.002-.29-.008-.433a7.51 7.51 0 001.807-1.905.091.091 0 00-.006-.108z"></path>
  </symbol>
  <symbol xmlns="http://www.w3.org/2000/svg" viewBox="0 0 19 16" id="icon-photo-report">
    <path fill-rule="evenodd" clip-rule="evenodd" d="M3 3.5v-2a1 1 0 011-1h14a1 1 0 011 1v10a1 1 0 01-1 1h-2v2a1 1 0 01-1 1H1a1 1 0 01-1-1v-10a1 1 0 011-1h2zm12 9H4a1 1 0 01-1-1v-7H1v10h14v-2zM4 1.5v10h14v-10H4zm14 10H4v-1l3-3 3 2 4-4 4 5v1zm-8.5-5a1.5 1.5 0 110-3 1.5 1.5 0 010 3z"></path>
  </symbol>
  <symbol xmlns="http://www.w3.org/2000/svg" viewBox="0 0 20 20" id="icon-youtube">
    <path fill-rule="evenodd" clip-rule="evenodd" d="M10 2.8c-2.898 0-6.66.73-6.66.73l-.009.01A2.77 2.77 0 001 6.277v7.445a2.778 2.778 0 002.338 2.743l.003.004S7.102 17.2 10 17.2c2.898 0 6.66-.73 6.66-.73A2.78 2.78 0 0019 13.722V6.277a2.778 2.778 0 00-2.338-2.744C16.66 3.53 12.898 2.8 10 2.8zM8.2 6.85L13.6 10l-5.4 3.15v-6.3z"></path>
  </symbol>
  <symbol xmlns="http://www.w3.org/2000/svg" viewBox="0 0 20 20" id="search-icon">
    <path fill-rule="evenodd" clip-rule="evenodd" d="M18.435 17.395l-4.289-4.455a7.238 7.238 0 001.707-4.673C15.853 4.26 12.59 1 8.577 1S1.3 4.26 1.3 8.267c0 4.008 3.264 7.268 7.277 7.268a7.206 7.206 0 004.168-1.315l4.322 4.49c.181.187.424.29.684.29a.948.948 0 00.684-1.605zm-9.858-14.5a5.381 5.381 0 015.378 5.372 5.381 5.381 0 01-5.378 5.372 5.381 5.381 0 01-5.379-5.372 5.381 5.381 0 015.379-5.371z"></path>
  </symbol>
  <symbol xmlns="http://www.w3.org/2000/svg" viewBox="0 0 18 17" id="icon-home">
    <path fill-rule="evenodd" clip-rule="evenodd" d="M2 17h5v-6h4v6h5v-7h2L9 0 0 10h2v7z"></path>
  </symbol>
  <symbol width="15" height="7" viewBox="0 0 15 7" xmlns="http://www.w3.org/2000/svg" id="icon-left-arrow">
    <path fill-rule="evenodd" clip-rule="evenodd" d="M15 3V4H4V7L0 3.5L4 0V3H15Z"></path>
  </symbol>
  <symbol width="15" height="7" viewBox="0 0 15 7" xmlns="http://www.w3.org/2000/svg" id="icon-right-arrow">
    <path fill-rule="evenodd" clip-rule="evenodd" d="M0 3V4H11V7L15 3.5L11 0V3H0Z"></path>
  </symbol>
  <symbol width="30" height="30" viewBox="0 0 30 30" xmlns="http://www.w3.org/2000/svg" id="icon-bookmark">
    <path fill-rule="evenodd" clip-rule="evenodd" d="M7.5 1.5H22.5C24.1569 1.5 25.5 2.84315 25.5 4.5V28.5L15.1424 21L4.5 28.5V4.5C4.5 2.84315 5.84315 1.5 7.5 1.5Z"></path>
  </symbol>
</svg>