<svg width="0" height="0">
  <symbol xmlns="http://www.w3.org/2000/svg" viewBox="0 0 20 20" id="button-arrow">
    <path fill-rule="evenodd" clip-rule="evenodd" d="M3 10v1h11v3l4-3.5L14 7v3H3z"></path>
  </symbol>
  <symbol xmlns="http://www.w3.org/2000/svg" viewBox="0 0 15 15" id="icon-comment">
    <path fill-rule="evenodd" clip-rule="evenodd" d="M11.135 12v3L8.36 12H2.25a1.5 1.5 0 01-1.5-1.5V3a1.5 1.5 0 011.5-1.5h10.5a1.5 1.5 0 011.5 1.5v7.5a1.5 1.5 0 01-1.5 1.5h-1.615z"></path>
  </symbol>
  <symbol xmlns="http://www.w3.org/2000/svg" viewBox="0 0 20 20" id="icon-download">
    <path fill-rule="evenodd" clip-rule="evenodd" d="M18 13.4262C18 13.1887 18.2626 13 18.5 13C18.7374 13 19 13.1887 19 13.4262V17.56C19 17.7974 18.8051 18 18.5677 18H2.42616C2.18872 18 2 17.7974 2 17.56V13.4262C2 13.1887 2.26256 13 2.5 13C2.73744 13 3 13.1887 3 13.4262V17H18V13.4262ZM11 1V11H14L10.5 15L7 11H10V1H11Z" fill="white"/>
  </symbol>
  <symbol xmlns="http://www.w3.org/2000/svg" viewBox="0 0 20 20" id="icon-facebook">
    <path fill-rule="evenodd" clip-rule="evenodd" d="M14.623 1.004L12.225 1C9.53 1 7.789 2.739 7.789 5.43v2.042H5.377A.372.372 0 005 7.84v2.96c0 .203.169.367.377.367H7.79v7.467c0 .203.169.367.377.367h3.146a.372.372 0 00.378-.367v-7.467h2.82a.372.372 0 00.377-.367V7.84c0-.097-.04-.19-.11-.26a.383.383 0 00-.267-.107h-2.82V5.741c0-.832.203-1.255 1.317-1.255h1.616A.372.372 0 0015 4.119V1.37a.372.372 0 00-.377-.367z"></path>
  </symbol>
  <symbol xmlns="http://www.w3.org/2000/svg" viewBox="0 0 80 80" id="icon-file">
    <path fill-rule="evenodd" clip-rule="evenodd" d="M52 4l16 16v52a4 4 0 01-4 4H16a4 4 0 01-4-4V8a4 4 0 014-4h36zm-4 20V8H16v64h48V24H48z" opacity=".5"></path>
  </symbol>
  <symbol xmlns="http://www.w3.org/2000/svg" viewBox="0 0 15 15" id="icon-gray-heart">
    <path fill-rule="evenodd" clip-rule="evenodd" d="M12.84 2.96c-.67-.748-1.56-1.16-2.505-1.16-.947 0-1.74.412-2.41 1.16l-.425.68-.425-.68c-.669-.748-1.463-1.16-2.41-1.16-.945 0-1.835.412-2.504 1.16C.78 4.506.78 7.02 2.16 8.564l4.949 4.757a.523.523 0 00.393.179c.14 0 .28-.06.387-.18l4.95-4.756c1.38-1.544 1.38-4.058 0-5.604z"></path>
  </symbol>
  <symbol xmlns="http://www.w3.org/2000/svg" viewBox="0 0 15 15" id="icon-heart">
    <path fill-rule="evenodd" clip-rule="evenodd" d="M12.84 2.96c-.67-.748-1.56-1.16-2.505-1.16-.947 0-1.74.412-2.41 1.16l-.425.68-.425-.68c-.669-.748-1.463-1.16-2.41-1.16-.945 0-1.835.412-2.504 1.16C.78 4.506.78 7.02 2.16 8.564l4.949 4.757a.523.523 0 00.393.179c.14 0 .28-.06.387-.18l4.95-4.756c1.38-1.544 1.38-4.058 0-5.604z"></path>
  </symbol>
  <symbol xmlns="http://www.w3.org/2000/svg" viewBox="0 0 20 20" id="icon-instagram">
    <path fill-rule="evenodd" clip-rule="evenodd" d="M10 1.5C12.3085 1.5 12.5979 1.50978 13.5045 1.55115C14.4093 1.59242 15.0272 1.73612 15.5678 1.94626C16.1268 2.16345 16.6008 2.45409 17.0734 2.92663C17.5459 3.3992 17.8366 3.87323 18.0538 4.43218C18.2639 4.97284 18.4076 5.59073 18.4488 6.49546C18.4902 7.40208 18.5 7.69154 18.5 10C18.5 12.3085 18.4902 12.5979 18.4488 13.5045C18.4076 14.4093 18.2639 15.0272 18.0538 15.5678C17.8366 16.1268 17.5459 16.6008 17.0734 17.0734C16.6008 17.5459 16.1268 17.8366 15.5678 18.0538C15.0272 18.2639 14.4093 18.4076 13.5045 18.4488C12.5979 18.4902 12.3085 18.5 10 18.5C7.69154 18.5 7.40208 18.4902 6.49546 18.4488C5.59073 18.4076 4.97284 18.2639 4.43218 18.0538C3.87323 17.8366 3.3992 17.5459 2.92663 17.0734C2.45409 16.6008 2.16345 16.1268 1.94626 15.5678C1.73612 15.0272 1.59242 14.4093 1.55115 13.5045C1.50978 12.5979 1.5 12.3085 1.5 10C1.5 7.69154 1.50978 7.40208 1.55115 6.49546C1.59242 5.59073 1.73612 4.97284 1.94626 4.43218C2.16345 3.87323 2.45409 3.3992 2.92663 2.92663C3.3992 2.45409 3.87323 2.16345 4.43218 1.94626C4.97284 1.73612 5.59073 1.59242 6.49546 1.55115C7.40208 1.50978 7.69154 1.5 10 1.5ZM9.99734 12.8298C11.5616 12.8298 12.8298 11.5616 12.8298 9.99734C12.8298 8.433 11.5616 7.16488 9.99734 7.16488C8.433 7.16488 7.16488 8.433 7.16488 9.99734C7.16488 11.5616 8.433 12.8298 9.99734 12.8298ZM9.99734 5.63383C12.4072 5.63383 14.3608 7.58742 14.3608 9.99734C14.3608 12.4072 12.4072 14.3608 9.99734 14.3608C7.58742 14.3608 5.63383 12.4072 5.63383 9.99734C5.63383 7.58742 7.58742 5.63383 9.99734 5.63383ZM15.8556 5.37224C15.8556 5.94601 15.3904 6.41111 14.8166 6.41111C14.2429 6.41111 13.7778 5.94601 13.7778 5.37224C13.7778 4.79847 14.2429 4.33333 14.8166 4.33333C15.3904 4.33333 15.8556 4.79847 15.8556 5.37224Z"></path>
  </symbol>
  <symbol xmlns="http://www.w3.org/2000/svg" viewBox="0 0 20 20" id="icon-twitter">
    <path fill-rule="evenodd" clip-rule="evenodd" d="M18.979 4.363a.088.088 0 00-.105-.025 7.151 7.151 0 01-1.687.517 3.777 3.777 0 001.317-1.867.09.09 0 00-.03-.098.089.089 0 00-.101-.008 7.177 7.177 0 01-2.245.875 3.745 3.745 0 00-2.7-1.157c-2.066 0-3.746 1.696-3.746 3.78 0 .253.024.503.072.745A10.298 10.298 0 012.4 3.31a.09.09 0 00-.147.012 3.806 3.806 0 00-.507 1.9 3.79 3.79 0 001.41 2.958 3.557 3.557 0 01-1.307-.426.088.088 0 00-.088 0 .09.09 0 00-.045.077v.048a3.79 3.79 0 002.633 3.612 3.57 3.57 0 01-1.245-.018.09.09 0 00-.102.116A3.752 3.752 0 006.253 14.2a7.155 7.155 0 01-4.292 1.412c-.287 0-.577-.017-.861-.051a.09.09 0 00-.095.059.09.09 0 00.036.106A10.38 10.38 0 006.694 17.4c6.568 0 10.492-5.385 10.492-10.591 0-.145-.002-.29-.008-.433a7.51 7.51 0 001.807-1.905.091.091 0 00-.006-.108z"></path>
  </symbol>
  <symbol xmlns="http://www.w3.org/2000/svg" viewBox="0 0 19 16" id="icon-photo-report">
    <path fill-rule="evenodd" clip-rule="evenodd" d="M3 3.5v-2a1 1 0 011-1h14a1 1 0 011 1v10a1 1 0 01-1 1h-2v2a1 1 0 01-1 1H1a1 1 0 01-1-1v-10a1 1 0 011-1h2zm12 9H4a1 1 0 01-1-1v-7H1v10h14v-2zM4 1.5v10h14v-10H4zm14 10H4v-1l3-3 3 2 4-4 4 5v1zm-8.5-5a1.5 1.5 0 110-3 1.5 1.5 0 010 3z"></path>
  </symbol>
  <symbol xmlns="http://www.w3.org/2000/svg" viewBox="0 0 20 20" id="icon-youtube">
    <path fill-rule="evenodd" clip-rule="evenodd" d="M10 2.8c-2.898 0-6.66.73-6.66.73l-.009.01A2.77 2.77 0 001 6.277v7.445a2.778 2.778 0 002.338 2.743l.003.004S7.102 17.2 10 17.2c2.898 0 6.66-.73 6.66-.73A2.78 2.78 0 0019 13.722V6.277a2.778 2.778 0 00-2.338-2.744C16.66 3.53 12.898 2.8 10 2.8zM8.2 6.85L13.6 10l-5.4 3.15v-6.3z"></path>
  </symbol>
  <symbol xmlns="http://www.w3.org/2000/svg" viewBox="0 0 20 20" id="search-icon">
    <path fill-rule="evenodd" clip-rule="evenodd" d="M18.435 17.395l-4.289-4.455a7.238 7.238 0 001.707-4.673C15.853 4.26 12.59 1 8.577 1S1.3 4.26 1.3 8.267c0 4.008 3.264 7.268 7.277 7.268a7.206 7.206 0 004.168-1.315l4.322 4.49c.181.187.424.29.684.29a.948.948 0 00.684-1.605zm-9.858-14.5a5.381 5.381 0 015.378 5.372 5.381 5.381 0 01-5.378 5.372 5.381 5.381 0 01-5.379-5.372 5.381 5.381 0 015.379-5.371z"></path>
  </symbol>
  <symbol xmlns="http://www.w3.org/2000/svg" viewBox="0 0 18 17" id="icon-home">
    <path fill-rule="evenodd" clip-rule="evenodd" d="M2 17h5v-6h4v6h5v-7h2L9 0 0 10h2v7z"></path>
  </symbol>
  <symbol width="15" height="7" viewBox="0 0 15 7" xmlns="http://www.w3.org/2000/svg" id="icon-left-arrow">
    <path fill-rule="evenodd" clip-rule="evenodd" d="M15 3V4H4V7L0 3.5L4 0V3H15Z"></path>
  </symbol>
  <symbol width="15" height="7" viewBox="0 0 15 7" xmlns="http://www.w3.org/2000/svg" id="icon-right-arrow">
    <path fill-rule="evenodd" clip-rule="evenodd" d="M0 3V4H11V7L15 3.5L11 0V3H0Z"></path>
  </symbol>
  <symbol width="30" height="30" viewBox="0 0 30 30" xmlns="http://www.w3.org/2000/svg" id="icon-bookmark">
    <path fill-rule="evenodd" clip-rule="evenodd" d="M7.5 1.5H22.5C24.1569 1.5 25.5 2.84315 25.5 4.5V28.5L15.1424 21L4.5 28.5V4.5C4.5 2.84315 5.84315 1.5 7.5 1.5Z"></path>
  </symbol>
</svg>